# xmcd
#
# Track frame offsets: 
#        150
#        16980
#        27764
#        42323
#        56855
#        68746
#        81613
#        98555
#        108687
#        128661
#        137688
#        152851
#        163852
#        173692
#
# Disc length: 2471 seconds
#
# Revision: 0
# Processed by: cddbd v1.5.2PL0 Copyright (c) Steve Scherf et al.
# Submitted via: ExactAudioCopy v1.3
#
DISCID=bb09a50e
DTITLE=Emil and The Ecstatics - Bit By Bit
DYEAR=2009
DGENRE=Blues
TTITLE0=Bit By Bit
TTITLE1=Doer Not A Talker
TTITLE2=In The Search Of A Woman
TTITLE3=All Day Everyday
TTITLE4=You Raised Hell
TTITLE5=The Spook
TTITLE6=Highway 4
TTITLE7=Stop!
TTITLE8=Cryin Wont Help You
TTITLE9=Lucky Girl
TTITLE10=An Easy Cure
TTITLE11=Regreat Song
TTITLE12=The Hula
TTITLE13=Terms Of Purchase
EXTD=
EXTT0=
EXTT1=
EXTT2=
EXTT3=
EXTT4=
EXTT5=
EXTT6=
EXTT7=
EXTT8=
EXTT9=
EXTT10=
EXTT11=
EXTT12=
EXTT13=
PLAYORDER=
